STARTFONT 2.1
FONT -Monotype-Rockwell-Bold-I-Normal--14-140-72-72-P-80-iso8859-1
SIZE 14 72 72
FONTBOUNDINGBOX 18 18 -2 -4

STARTPROPERTIES 22
FOUNDRY "Monotype"
FAMILY_NAME "Rockwell"
WEIGHT_NAME "Bold"
SLANT "I"
SETWIDTH_NAME "Normal"
ADD_STYLE_NAME ""
PIXEL_SIZE 14
POINT_SIZE 140
RESOLUTION_X 72
RESOLUTION_Y 72
SPACING "P"
AVERAGE_WIDTH 80
CHARSET_REGISTRY "iso8859"
CHARSET_ENCODING "1"
COPYRIGHT "Copyright (c) 1996 Monotype Typography Ltd."
CAP_HEIGHT 12
X_HEIGHT 8
WEIGHT 10
QUAD_WIDTH 9
DEFAULT_CHAR 32
FONT_DESCENT 4
FONT_ASCENT 14
ENDPROPERTIES

CHARS 191

STARTCHAR space
ENCODING 32
SWIDTH 250 0
DWIDTH 5 0
BBX 0 0 0 0
BITMAP
ENDCHAR

STARTCHAR exclam
ENCODING 33
SWIDTH 333 0
DWIDTH 5 0
BBX 4 10 1 0
BITMAP
30
30
30
30
60
60
60
00
C0
C0
ENDCHAR

STARTCHAR quotedbl
ENCODING 34
SWIDTH 552 0
DWIDTH 8 0
BBX 6 5 2 5
BITMAP
CC
CC
CC
CC
CC
ENDCHAR

STARTCHAR numbersign
ENCODING 35
SWIDTH 668 0
DWIDTH 10 0
BBX 10 10 1 0
BITMAP
1980
1980
7FC0
7FC0
3300
3300
FF80
FF80
6600
6600
ENDCHAR

STARTCHAR dollar
ENCODING 36
SWIDTH 500 0
DWIDTH 8 0
BBX 7 12 1 -1
BITMAP
0C
3C
7E
66
70
38
1C
0C
CC
FC
78
60
ENDCHAR

STARTCHAR percent
ENCODING 37
SWIDTH 927 0
DWIDTH 14 0
BBX 11 10 2 0
BITMAP
3060
58C0
D980
D300
6600
0CC0
1960
3360
6340
C180
ENDCHAR

STARTCHAR ampersand
ENCODING 38
SWIDTH 740 0
DWIDTH 11 0
BBX 10 10 1 0
BITMAP
0E00
1B00
1B00
1E00
39C0
6DC0
C700
C600
FF80
7B80
ENDCHAR

STARTCHAR quoteright
ENCODING 39
SWIDTH 333 0
DWIDTH 5 0
BBX 3 4 2 6
BITMAP
60
60
20
C0
ENDCHAR

STARTCHAR parenleft
ENCODING 40
SWIDTH 344 0
DWIDTH 5 0
BBX 6 13 1 -3
BITMAP
0C
18
30
30
60
60
C0
C0
C0
C0
C0
60
60
ENDCHAR

STARTCHAR parenright
ENCODING 41
SWIDTH 344 0
DWIDTH 5 0
BBX 6 13 -2 -3
BITMAP
18
18
0C
0C
0C
0C
0C
18
18
30
30
60
C0
ENDCHAR

STARTCHAR asterisk
ENCODING 42
SWIDTH 563 0
DWIDTH 8 0
BBX 7 7 2 3
BITMAP
18
D8
F6
3E
F8
CC
0C
ENDCHAR

STARTCHAR plus
ENCODING 43
SWIDTH 668 0
DWIDTH 10 0
BBX 8 8 2 1
BITMAP
18
18
18
FF
FF
18
18
18
ENDCHAR

STARTCHAR comma
ENCODING 44
SWIDTH 333 0
DWIDTH 5 0
BBX 3 4 0 -2
BITMAP
60
60
20
C0
ENDCHAR

STARTCHAR minus
ENCODING 45
SWIDTH 668 0
DWIDTH 10 0
BBX 8 2 1 4
BITMAP
FF
FF
ENDCHAR

STARTCHAR period
ENCODING 46
SWIDTH 333 0
DWIDTH 5 0
BBX 2 2 1 0
BITMAP
C0
C0
ENDCHAR

STARTCHAR slash
ENCODING 47
SWIDTH 508 0
DWIDTH 8 0
BBX 7 11 1 -1
BITMAP
06
06
0C
1C
18
38
30
70
60
C0
C0
ENDCHAR

STARTCHAR zero
ENCODING 48
SWIDTH 542 0
DWIDTH 8 0
BBX 7 10 0 0
BITMAP
1C
3E
66
66
E6
CE
CC
CC
F8
70
ENDCHAR

STARTCHAR one
ENCODING 49
SWIDTH 542 0
DWIDTH 8 0
BBX 6 10 0 0
BITMAP
1C
1C
0C
18
18
18
30
30
F8
F8
ENDCHAR

STARTCHAR two
ENCODING 50
SWIDTH 542 0
DWIDTH 8 0
BBX 7 10 0 0
BITMAP
1C
3E
66
06
1C
38
60
CC
F8
F8
ENDCHAR

STARTCHAR three
ENCODING 51
SWIDTH 542 0
DWIDTH 8 0
BBX 8 10 0 0
BITMAP
1E
3F
33
06
1C
1E
06
C6
FC
78
ENDCHAR

STARTCHAR four
ENCODING 52
SWIDTH 542 0
DWIDTH 8 0
BBX 7 10 0 0
BITMAP
06
0E
1C
3C
6C
D8
FE
18
3C
3C
ENDCHAR

STARTCHAR five
ENCODING 53
SWIDTH 542 0
DWIDTH 8 0
BBX 9 10 0 0
BITMAP
1F80
1F80
3300
3000
3E00
1E00
0600
C600
FC00
7800
ENDCHAR

STARTCHAR six
ENCODING 54
SWIDTH 542 0
DWIDTH 8 0
BBX 7 10 0 0
BITMAP
1C
3E
66
78
7C
CC
CC
CC
F8
70
ENDCHAR

STARTCHAR seven
ENCODING 55
SWIDTH 542 0
DWIDTH 8 0
BBX 7 10 1 0
BITMAP
7E
FE
CC
18
30
30
60
60
F0
F0
ENDCHAR

STARTCHAR eight
ENCODING 56
SWIDTH 542 0
DWIDTH 8 0
BBX 7 10 0 0
BITMAP
1C
3E
66
66
3C
78
CC
CC
F8
70
ENDCHAR

STARTCHAR nine
ENCODING 57
SWIDTH 542 0
DWIDTH 8 0
BBX 7 10 0 0
BITMAP
1C
3E
66
66
66
7C
3C
CC
F8
70
ENDCHAR

STARTCHAR colon
ENCODING 58
SWIDTH 333 0
DWIDTH 5 0
BBX 3 7 0 0
BITMAP
60
60
00
00
00
C0
C0
ENDCHAR

STARTCHAR semicolon
ENCODING 59
SWIDTH 333 0
DWIDTH 5 0
BBX 4 9 -1 -2
BITMAP
30
30
00
00
00
60
60
20
C0
ENDCHAR

STARTCHAR less
ENCODING 60
SWIDTH 667 0
DWIDTH 10 0
BBX 8 8 1 1
BITMAP
03
0F
3C
E0
E0
3C
0F
03
ENDCHAR

STARTCHAR equal
ENCODING 61
SWIDTH 667 0
DWIDTH 10 0
BBX 8 6 1 2
BITMAP
FF
FF
00
00
FF
FF
ENDCHAR

STARTCHAR greater
ENCODING 62
SWIDTH 667 0
DWIDTH 10 0
BBX 8 8 1 1
BITMAP
C0
F0
3C
07
07
3C
F0
C0
ENDCHAR

STARTCHAR question
ENCODING 63
SWIDTH 542 0
DWIDTH 8 0
BBX 6 10 2 0
BITMAP
78
FC
8C
0C
38
70
40
00
C0
C0
ENDCHAR

STARTCHAR at
ENCODING 64
SWIDTH 979 0
DWIDTH 15 0
BBX 14 15 1 -3
BITMAP
03C0
0C30
1008
2368
47E4
4CC4
8CC4
98C4
9988
9988
9F90
4EE0
400C
3030
0FC0
ENDCHAR

STARTCHAR A
ENCODING 65
SWIDTH 646 0
DWIDTH 10 0
BBX 10 10 0 0
BITMAP
0FC0
0FC0
0780
0D80
1980
3F80
3F80
6180
F3C0
F3C0
ENDCHAR

STARTCHAR B
ENCODING 66
SWIDTH 667 0
DWIDTH 10 0
BBX 10 10 -1 0
BITMAP
1F80
1FC0
0CC0
0CC0
1F80
1F80
3180
3180
FF80
FF00
ENDCHAR

STARTCHAR C
ENCODING 67
SWIDTH 771 0
DWIDTH 12 0
BBX 11 10 1 0
BITMAP
0F60
3FE0
70E0
6000
E000
C000
C0C0
E1C0
7F80
3E00
ENDCHAR

STARTCHAR D
ENCODING 68
SWIDTH 760 0
DWIDTH 11 0
BBX 11 10 -1 0
BITMAP
1F80
1FC0
0CE0
0C60
1860
1860
30C0
31C0
FF80
FE00
ENDCHAR

STARTCHAR E
ENCODING 69
SWIDTH 635 0
DWIDTH 10 0
BBX 11 10 -1 0
BITMAP
1FE0
1FE0
0C60
0C60
1E00
1E00
30C0
30C0
FF80
FF80
ENDCHAR

STARTCHAR F
ENCODING 70
SWIDTH 583 0
DWIDTH 9 0
BBX 11 10 -1 0
BITMAP
1FE0
1FE0
0C60
0C00
1F00
1F00
3000
3000
F800
F800
ENDCHAR

STARTCHAR G
ENCODING 71
SWIDTH 813 0
DWIDTH 12 0
BBX 11 10 1 0
BITMAP
0F60
3FE0
70E0
6000
E000
C7C0
C7C0
E380
7F00
3C00
ENDCHAR

STARTCHAR H
ENCODING 72
SWIDTH 740 0
DWIDTH 11 0
BBX 13 10 -1 0
BITMAP
1EF8
1EF8
0C60
0C60
1FC0
1FC0
3180
3180
FBC0
FBC0
ENDCHAR

STARTCHAR I
ENCODING 73
SWIDTH 396 0
DWIDTH 6 0
BBX 8 10 -1 0
BITMAP
1F
1F
0C
0C
18
18
30
30
F8
F8
ENDCHAR

STARTCHAR J
ENCODING 74
SWIDTH 375 0
DWIDTH 6 0
BBX 9 14 -2 -4
BITMAP
0F80
0F80
0600
0600
0C00
0C00
0C00
1800
1800
1800
3000
3000
E000
C000
ENDCHAR

STARTCHAR K
ENCODING 75
SWIDTH 708 0
DWIDTH 11 0
BBX 12 10 -1 0
BITMAP
1EF0
1EF0
0CC0
0D80
1F00
1E00
3300
3180
FBE0
FBE0
ENDCHAR

STARTCHAR L
ENCODING 76
SWIDTH 604 0
DWIDTH 9 0
BBX 10 10 -1 0
BITMAP
1F00
1F00
0C00
0C00
1800
18C0
3180
3180
FF00
FF00
ENDCHAR

STARTCHAR M
ENCODING 77
SWIDTH 1021 0
DWIDTH 15 0
BBX 17 10 -1 0
BITMAP
1E0F80
1E0F80
0E1F00
1B3600
1B3600
1B6600
31CC00
31CC00
F99E00
F99E00
ENDCHAR

STARTCHAR N
ENCODING 78
SWIDTH 792 0
DWIDTH 12 0
BBX 14 10 -1 0
BITMAP
1E7C
1E7C
0E30
1B30
1B60
1B60
3360
31C0
F9C0
F9C0
ENDCHAR

STARTCHAR O
ENCODING 79
SWIDTH 823 0
DWIDTH 12 0
BBX 10 10 1 0
BITMAP
0F00
3F80
71C0
60C0
E0C0
C1C0
C180
E380
7F00
3C00
ENDCHAR

STARTCHAR P
ENCODING 80
SWIDTH 646 0
DWIDTH 10 0
BBX 10 10 -1 0
BITMAP
1F80
1FC0
0CC0
0CC0
19C0
1F80
3F00
3000
F800
F800
ENDCHAR

STARTCHAR Q
ENCODING 81
SWIDTH 823 0
DWIDTH 12 0
BBX 10 12 1 -2
BITMAP
0F00
3F80
71C0
60C0
E0C0
C1C0
C180
E380
7F00
3C00
3E00
4300
ENDCHAR

STARTCHAR R
ENCODING 82
SWIDTH 698 0
DWIDTH 10 0
BBX 10 10 -1 0
BITMAP
1F80
1FC0
0CC0
0CC0
1F80
1F00
3300
3300
F9C0
F9C0
ENDCHAR

STARTCHAR S
ENCODING 83
SWIDTH 510 0
DWIDTH 8 0
BBX 8 10 0 0
BITMAP
1B
3F
33
30
38
1C
0C
CC
FC
D8
ENDCHAR

STARTCHAR T
ENCODING 84
SWIDTH 688 0
DWIDTH 10 0
BBX 11 10 1 0
BITMAP
7FE0
7FE0
CCC0
CCC0
1800
1800
3000
3000
F800
F800
ENDCHAR

STARTCHAR U
ENCODING 85
SWIDTH 708 0
DWIDTH 11 0
BBX 12 10 1 0
BITMAP
7DF0
7DF0
30C0
30C0
6180
6180
C300
C300
FE00
7C00
ENDCHAR

STARTCHAR V
ENCODING 86
SWIDTH 646 0
DWIDTH 10 0
BBX 11 10 1 0
BITMAP
F3E0
F3E0
6180
6300
6600
6600
6C00
7800
7000
6000
ENDCHAR

STARTCHAR W
ENCODING 87
SWIDTH 896 0
DWIDTH 13 0
BBX 14 10 1 0
BITMAP
F7BC
F7BC
6318
6730
6730
6F60
6B40
7BC0
7380
6300
ENDCHAR

STARTCHAR X
ENCODING 88
SWIDTH 677 0
DWIDTH 10 0
BBX 12 10 -1 0
BITMAP
3E70
3E70
0CC0
0D80
0700
0E00
1B00
3180
F9E0
F9E0
ENDCHAR

STARTCHAR Y
ENCODING 89
SWIDTH 625 0
DWIDTH 9 0
BBX 9 10 1 0
BITMAP
F780
F780
6600
6C00
3800
3000
6000
6000
F000
F000
ENDCHAR

STARTCHAR Z
ENCODING 90
SWIDTH 604 0
DWIDTH 9 0
BBX 9 10 0 0
BITMAP
1F80
3F80
3300
0600
0C00
1800
3000
6300
FF00
FE00
ENDCHAR

STARTCHAR bracketleft
ENCODING 91
SWIDTH 385 0
DWIDTH 6 0
BBX 7 14 0 -4
BITMAP
1E
1E
18
30
30
30
30
60
60
60
C0
C0
F0
F0
ENDCHAR

STARTCHAR backslash
ENCODING 92
SWIDTH 508 0
DWIDTH 8 0
BBX 7 11 1 -1
BITMAP
C0
C0
60
60
30
30
18
18
0C
0C
06
ENDCHAR

STARTCHAR bracketright
ENCODING 93
SWIDTH 385 0
DWIDTH 6 0
BBX 7 14 -1 -4
BITMAP
1E
1E
06
0C
0C
0C
0C
18
18
18
30
30
F0
F0
ENDCHAR

STARTCHAR asciicircum
ENCODING 94
SWIDTH 583 0
DWIDTH 9 0
BBX 7 6 1 4
BITMAP
10
38
38
6C
6C
C6
ENDCHAR

STARTCHAR underscore
ENCODING 95
SWIDTH 500 0
DWIDTH 8 0
BBX 7 2 0 -3
BITMAP
FE
FE
ENDCHAR

STARTCHAR quoteleft
ENCODING 96
SWIDTH 333 0
DWIDTH 5 0
BBX 3 4 1 6
BITMAP
60
80
C0
C0
ENDCHAR

STARTCHAR a
ENCODING 97
SWIDTH 573 0
DWIDTH 9 0
BBX 7 7 1 0
BITMAP
7C
7E
06
7C
CC
FE
6E
ENDCHAR

STARTCHAR b
ENCODING 98
SWIDTH 604 0
DWIDTH 9 0
BBX 8 10 0 0
BITMAP
38
38
18
36
3F
33
63
66
FE
DC
ENDCHAR

STARTCHAR c
ENCODING 99
SWIDTH 531 0
DWIDTH 8 0
BBX 7 7 1 0
BITMAP
3E
7E
66
C0
CC
FC
78
ENDCHAR

STARTCHAR d
ENCODING 100
SWIDTH 604 0
DWIDTH 9 0
BBX 8 10 1 0
BITMAP
07
07
03
36
7E
66
CC
CC
FE
6E
ENDCHAR

STARTCHAR e
ENCODING 101
SWIDTH 552 0
DWIDTH 8 0
BBX 6 7 1 0
BITMAP
38
7C
6C
FC
C0
F8
70
ENDCHAR

STARTCHAR f
ENCODING 102
SWIDTH 333 0
DWIDTH 5 0
BBX 7 10 0 0
BITMAP
0E
1E
18
7C
7C
30
30
60
F0
F0
ENDCHAR

STARTCHAR g
ENCODING 103
SWIDTH 604 0
DWIDTH 9 0
BBX 9 10 0 -3
BITMAP
1D80
3F80
3300
6300
6600
7E00
3600
0600
FC00
7800
ENDCHAR

STARTCHAR h
ENCODING 104
SWIDTH 604 0
DWIDTH 9 0
BBX 8 10 0 0
BITMAP
38
38
18
36
3F
33
33
66
F7
F7
ENDCHAR

STARTCHAR i
ENCODING 105
SWIDTH 333 0
DWIDTH 5 0
BBX 5 10 0 0
BITMAP
18
18
00
70
70
30
30
60
F0
F0
ENDCHAR

STARTCHAR j
ENCODING 106
SWIDTH 323 0
DWIDTH 5 0
BBX 6 13 -1 -3
BITMAP
0C
0C
00
38
38
18
18
30
30
30
30
E0
C0
ENDCHAR

STARTCHAR k
ENCODING 107
SWIDTH 573 0
DWIDTH 9 0
BBX 9 10 0 0
BITMAP
3800
3800
1800
1B80
3380
3600
3C00
6600
F780
F380
ENDCHAR

STARTCHAR l
ENCODING 108
SWIDTH 333 0
DWIDTH 5 0
BBX 5 10 0 0
BITMAP
38
38
18
30
30
30
60
60
F0
F0
ENDCHAR

STARTCHAR m
ENCODING 109
SWIDTH 969 0
DWIDTH 15 0
BBX 14 7 0 0
BITMAP
77B8
7FFC
318C
318C
6318
F39C
F39C
ENDCHAR

STARTCHAR n
ENCODING 110
SWIDTH 604 0
DWIDTH 9 0
BBX 8 7 0 0
BITMAP
76
7F
33
33
66
F7
F7
ENDCHAR

STARTCHAR o
ENCODING 111
SWIDTH 573 0
DWIDTH 9 0
BBX 7 7 1 0
BITMAP
3C
7E
66
C6
CC
FC
78
ENDCHAR

STARTCHAR p
ENCODING 112
SWIDTH 604 0
DWIDTH 9 0
BBX 9 10 -1 -3
BITMAP
3B00
3F80
1980
3180
3380
3F00
6E00
6000
F000
F000
ENDCHAR

STARTCHAR q
ENCODING 113
SWIDTH 604 0
DWIDTH 9 0
BBX 8 10 1 -3
BITMAP
3B
7F
66
C6
CC
FC
6C
18
3C
3C
ENDCHAR

STARTCHAR r
ENCODING 114
SWIDTH 417 0
DWIDTH 6 0
BBX 6 7 0 0
BITMAP
6C
7C
30
60
60
F0
F0
ENDCHAR

STARTCHAR s
ENCODING 115
SWIDTH 490 0
DWIDTH 7 0
BBX 7 7 0 0
BITMAP
36
7E
66
38
CC
FC
D8
ENDCHAR

STARTCHAR t
ENCODING 116
SWIDTH 333 0
DWIDTH 5 0
BBX 5 10 0 0
BITMAP
10
30
30
F8
F8
60
60
C0
F0
70
ENDCHAR

STARTCHAR u
ENCODING 117
SWIDTH 604 0
DWIDTH 9 0
BBX 7 7 1 0
BITMAP
EE
EE
66
66
CC
FE
76
ENDCHAR

STARTCHAR v
ENCODING 118
SWIDTH 510 0
DWIDTH 8 0
BBX 8 7 0 0
BITMAP
F7
F7
66
6C
78
70
60
ENDCHAR

STARTCHAR w
ENCODING 119
SWIDTH 760 0
DWIDTH 11 0
BBX 12 7 0 0
BITMAP
F770
F770
6660
6EC0
7F80
7700
6600
ENDCHAR

STARTCHAR x
ENCODING 120
SWIDTH 500 0
DWIDTH 8 0
BBX 8 7 0 0
BITMAP
77
77
1C
18
38
EE
EE
ENDCHAR

STARTCHAR y
ENCODING 121
SWIDTH 563 0
DWIDTH 8 0
BBX 10 10 -2 -3
BITMAP
3DC0
3DC0
1980
1B00
1E00
1C00
1800
3000
E000
E000
ENDCHAR

STARTCHAR z
ENCODING 122
SWIDTH 479 0
DWIDTH 7 0
BBX 7 7 0 0
BITMAP
3E
7E
0C
18
36
7C
F8
ENDCHAR

STARTCHAR braceleft
ENCODING 123
SWIDTH 385 0
DWIDTH 6 0
BBX 4 14 2 -4
BITMAP
30
60
60
60
60
60
C0
60
60
60
60
60
60
30
ENDCHAR

STARTCHAR bar
ENCODING 124
SWIDTH 611 0
DWIDTH 9 0
BBX 2 13 4 -3
BITMAP
C0
C0
C0
C0
C0
C0
C0
C0
C0
C0
C0
C0
C0
ENDCHAR

STARTCHAR braceright
ENCODING 125
SWIDTH 385 0
DWIDTH 6 0
BBX 4 14 1 -4
BITMAP
C0
60
60
60
60
60
30
60
60
60
60
60
60
C0
ENDCHAR

STARTCHAR asciitilde
ENCODING 126
SWIDTH 583 0
DWIDTH 9 0
BBX 8 3 1 4
BITMAP
71
FF
8E
ENDCHAR

STARTCHAR space
ENCODING 160
SWIDTH 250 0
DWIDTH 4 0
BBX 0 0 0 0
BITMAP
ENDCHAR

STARTCHAR exclamdown
ENCODING 161
SWIDTH 333 0
DWIDTH 5 0
BBX 4 10 1 -3
BITMAP
30
30
00
60
60
60
60
C0
C0
C0
ENDCHAR

STARTCHAR cent
ENCODING 162
SWIDTH 531 0
DWIDTH 8 0
BBX 7 13 1 -3
BITMAP
04
04
08
3E
7E
6E
D0
EC
FC
78
20
40
40
ENDCHAR

STARTCHAR sterling
ENCODING 163
SWIDTH 510 0
DWIDTH 8 0
BBX 9 10 0 0
BITMAP
0700
0F80
1980
1800
3E00
3E00
1800
7900
DF00
F600
ENDCHAR

STARTCHAR currency
ENCODING 164
SWIDTH 667 0
DWIDTH 10 0
BBX 7 7 2 2
BITMAP
D6
FE
6C
C6
6C
FE
D6
ENDCHAR

STARTCHAR yen
ENCODING 165
SWIDTH 625 0
DWIDTH 9 0
BBX 10 10 0 0
BITMAP
7BC0
7BC0
3300
3600
FF80
1800
FF80
3000
7800
7800
ENDCHAR

STARTCHAR brokenbar
ENCODING 166
SWIDTH 611 0
DWIDTH 9 0
BBX 2 13 4 -3
BITMAP
C0
C0
C0
C0
C0
C0
00
C0
C0
C0
C0
C0
C0
ENDCHAR

STARTCHAR section
ENCODING 167
SWIDTH 510 0
DWIDTH 8 0
BBX 7 13 1 -3
BITMAP
3C
7E
66
30
78
CC
C6
66
3C
18
CC
FC
78
ENDCHAR

STARTCHAR dieresis
ENCODING 168
SWIDTH 333 0
DWIDTH 5 0
BBX 6 2 1 8
BITMAP
CC
CC
ENDCHAR

STARTCHAR copyright
ENCODING 169
SWIDTH 740 0
DWIDTH 11 0
BBX 11 11 0 0
BITMAP
1F00
2080
4F40
9B20
9820
9820
9820
9B20
4E40
2080
1F00
ENDCHAR

STARTCHAR ordfeminine
ENCODING 170
SWIDTH 375 0
DWIDTH 6 0
BBX 5 5 1 5
BITMAP
70
18
78
D0
78
ENDCHAR

STARTCHAR guillemotleft
ENCODING 171
SWIDTH 531 0
DWIDTH 8 0
BBX 9 7 0 0
BITMAP
1980
3300
6600
CC00
CC00
6600
3300
ENDCHAR

STARTCHAR logicalnot
ENCODING 172
SWIDTH 668 0
DWIDTH 10 0
BBX 8 5 1 3
BITMAP
FF
FF
03
03
03
ENDCHAR

STARTCHAR hyphen
ENCODING 173
SWIDTH 344 0
DWIDTH 5 0
BBX 4 2 1 3
BITMAP
F0
F0
ENDCHAR

STARTCHAR registered
ENCODING 174
SWIDTH 740 0
DWIDTH 11 0
BBX 11 11 0 0
BITMAP
1F00
2080
7E40
9B20
9B20
9E20
9B20
9B20
79C0
2080
1F00
ENDCHAR

STARTCHAR macron
ENCODING 175
SWIDTH 333 0
DWIDTH 5 0
BBX 4 2 1 8
BITMAP
F0
F0
ENDCHAR

STARTCHAR degree
ENCODING 176
SWIDTH 396 0
DWIDTH 6 0
BBX 5 5 2 5
BITMAP
70
88
88
88
70
ENDCHAR

STARTCHAR plusminus
ENCODING 177
SWIDTH 668 0
DWIDTH 10 0
BBX 8 10 1 0
BITMAP
18
18
18
FF
FF
18
18
18
FF
FF
ENDCHAR

STARTCHAR twosuperior
ENCODING 178
SWIDTH 333 0
DWIDTH 5 0
BBX 5 5 1 5
BITMAP
30
58
30
68
F0
ENDCHAR

STARTCHAR threesuperior
ENCODING 179
SWIDTH 333 0
DWIDTH 5 0
BBX 6 5 1 5
BITMAP
3C
18
30
98
70
ENDCHAR

STARTCHAR acute
ENCODING 180
SWIDTH 333 0
DWIDTH 5 0
BBX 5 3 1 7
BITMAP
38
70
C0
ENDCHAR

STARTCHAR mu
ENCODING 181
SWIDTH 615 0
DWIDTH 9 0
BBX 9 10 -1 -3
BITMAP
3180
3180
3180
6300
6300
7F00
5B00
C000
C000
C000
ENDCHAR

STARTCHAR paragraph
ENCODING 182
SWIDTH 552 0
DWIDTH 8 0
BBX 8 13 0 -3
BITMAP
3F
7F
F6
F6
F6
76
36
36
36
36
36
36
36
ENDCHAR

STARTCHAR periodcentered
ENCODING 183
SWIDTH 333 0
DWIDTH 5 0
BBX 2 2 2 4
BITMAP
C0
C0
ENDCHAR

STARTCHAR cedilla
ENCODING 184
SWIDTH 333 0
DWIDTH 5 0
BBX 4 3 -1 -3
BITMAP
60
30
E0
ENDCHAR

STARTCHAR onesuperior
ENCODING 185
SWIDTH 333 0
DWIDTH 5 0
BBX 4 5 1 5
BITMAP
70
30
60
60
F0
ENDCHAR

STARTCHAR ordmasculine
ENCODING 186
SWIDTH 375 0
DWIDTH 6 0
BBX 5 5 1 5
BITMAP
30
58
D8
D0
60
ENDCHAR

STARTCHAR guillemotright
ENCODING 187
SWIDTH 531 0
DWIDTH 8 0
BBX 9 7 -1 0
BITMAP
6600
3300
1980
1980
3300
6600
CC00
ENDCHAR

STARTCHAR onequarter
ENCODING 188
SWIDTH 927 0
DWIDTH 14 0
BBX 11 10 2 0
BITMAP
7060
30C0
6180
6300
F600
0CE0
19C0
32C0
67E0
C180
ENDCHAR

STARTCHAR onehalf
ENCODING 189
SWIDTH 927 0
DWIDTH 14 0
BBX 11 10 2 0
BITMAP
7060
30C0
6180
6300
F600
0CC0
1960
30C0
61A0
C3C0
ENDCHAR

STARTCHAR threequarters
ENCODING 190
SWIDTH 927 0
DWIDTH 14 0
BBX 11 10 2 0
BITMAP
3C60
18C0
3180
9B00
7600
0CE0
19C0
32C0
67E0
C180
ENDCHAR

STARTCHAR questiondown
ENCODING 191
SWIDTH 542 0
DWIDTH 8 0
BBX 6 10 0 -3
BITMAP
0C
0C
00
08
38
70
C0
C4
FC
78
ENDCHAR

STARTCHAR Agrave
ENCODING 192
SWIDTH 646 0
DWIDTH 10 0
BBX 10 14 0 0
BITMAP
0E00
0700
0180
0000
0FC0
0FC0
0780
0D80
1980
3F80
3F80
6180
F3C0
F3C0
ENDCHAR

STARTCHAR Aacute
ENCODING 193
SWIDTH 646 0
DWIDTH 10 0
BBX 10 14 0 0
BITMAP
01C0
0380
0600
0000
0FC0
0FC0
0780
0D80
1980
3F80
3F80
6180
F3C0
F3C0
ENDCHAR

STARTCHAR Acircumflex
ENCODING 194
SWIDTH 646 0
DWIDTH 10 0
BBX 10 14 0 0
BITMAP
0180
03C0
06C0
0000
0FC0
0FC0
0780
0D80
1980
3F80
3F80
6180
F3C0
F3C0
ENDCHAR

STARTCHAR Atilde
ENCODING 195
SWIDTH 646 0
DWIDTH 10 0
BBX 11 14 0 0
BITMAP
0320
07E0
04C0
0000
0FC0
0FC0
0780
0D80
1980
3F80
3F80
6180
F3C0
F3C0
ENDCHAR

STARTCHAR Adieresis
ENCODING 196
SWIDTH 646 0
DWIDTH 10 0
BBX 10 13 0 0
BITMAP
06C0
06C0
0000
0FC0
0FC0
0780
0D80
1980
3F80
3F80
6180
F3C0
F3C0
ENDCHAR

STARTCHAR Aring
ENCODING 197
SWIDTH 646 0
DWIDTH 10 0
BBX 10 14 0 0
BITMAP
0300
0480
0480
0300
0FC0
0FC0
0780
0D80
1980
3F80
3F80
6180
F3C0
F3C0
ENDCHAR

STARTCHAR AE
ENCODING 198
SWIDTH 927 0
DWIDTH 14 0
BBX 15 10 0 0
BITMAP
1FFE
1FFE
0CC6
18C6
1FE0
3FE0
330C
630C
F7F8
F7F8
ENDCHAR

STARTCHAR Ccedilla
ENCODING 199
SWIDTH 771 0
DWIDTH 12 0
BBX 11 13 1 -3
BITMAP
0F60
3FE0
70E0
6000
E000
C000
C0C0
E1C0
7F80
3E00
1800
0C00
3800
ENDCHAR

STARTCHAR Egrave
ENCODING 200
SWIDTH 635 0
DWIDTH 10 0
BBX 11 14 -1 0
BITMAP
0700
0380
00C0
0000
1FE0
1FE0
0C60
0C60
1E00
1E00
30C0
30C0
FF80
FF80
ENDCHAR

STARTCHAR Eacute
ENCODING 201
SWIDTH 635 0
DWIDTH 10 0
BBX 11 14 -1 0
BITMAP
00E0
01C0
0300
0000
1FE0
1FE0
0C60
0C60
1E00
1E00
30C0
30C0
FF80
FF80
ENDCHAR

STARTCHAR Ecircumflex
ENCODING 202
SWIDTH 635 0
DWIDTH 10 0
BBX 11 14 -1 0
BITMAP
0180
03C0
06C0
0000
1FE0
1FE0
0C60
0C60
1E00
1E00
30C0
30C0
FF80
FF80
ENDCHAR

STARTCHAR Edieresis
ENCODING 203
SWIDTH 635 0
DWIDTH 10 0
BBX 11 13 -1 0
BITMAP
06C0
06C0
0000
1FE0
1FE0
0C60
0C60
1E00
1E00
30C0
30C0
FF80
FF80
ENDCHAR

STARTCHAR Igrave
ENCODING 204
SWIDTH 396 0
DWIDTH 6 0
BBX 8 14 -1 0
BITMAP
1C
0E
03
00
1F
1F
0C
0C
18
18
30
30
F8
F8
ENDCHAR

STARTCHAR Iacute
ENCODING 205
SWIDTH 396 0
DWIDTH 6 0
BBX 9 14 -1 0
BITMAP
0380
0700
0C00
0000
1F00
1F00
0C00
0C00
1800
1800
3000
3000
F800
F800
ENDCHAR

STARTCHAR Icircumflex
ENCODING 206
SWIDTH 396 0
DWIDTH 6 0
BBX 9 14 -1 0
BITMAP
0300
0780
0D80
0000
1F00
1F00
0C00
0C00
1800
1800
3000
3000
F800
F800
ENDCHAR

STARTCHAR Idieresis
ENCODING 207
SWIDTH 396 0
DWIDTH 6 0
BBX 9 13 -1 0
BITMAP
0D80
0D80
0000
1F00
1F00
0C00
0C00
1800
1800
3000
3000
F800
F800
ENDCHAR

STARTCHAR Eth
ENCODING 208
SWIDTH 760 0
DWIDTH 11 0
BBX 11 10 -1 0
BITMAP
1F80
1FC0
0CE0
0C60
7E60
7E60
30C0
31C0
FF80
FE00
ENDCHAR

STARTCHAR Ntilde
ENCODING 209
SWIDTH 792 0
DWIDTH 12 0
BBX 14 14 -1 0
BITMAP
0390
07F0
04E0
0000
1E7C
1E7C
0E30
1B30
1B60
1B60
3360
31C0
F9C0
F9C0
ENDCHAR

STARTCHAR Ograve
ENCODING 210
SWIDTH 823 0
DWIDTH 12 0
BBX 10 14 1 0
BITMAP
1C00
0E00
0300
0000
0F00
3F80
71C0
60C0
E0C0
C1C0
C180
E380
7F00
3C00
ENDCHAR

STARTCHAR Oacute
ENCODING 211
SWIDTH 823 0
DWIDTH 12 0
BBX 10 14 1 0
BITMAP
0380
0700
0C00
0000
0F00
3F80
71C0
60C0
E0C0
C1C0
C180
E380
7F00
3C00
ENDCHAR

STARTCHAR Ocircumflex
ENCODING 212
SWIDTH 823 0
DWIDTH 12 0
BBX 10 14 1 0
BITMAP
0600
0F00
1B00
0000
0F00
3F80
71C0
60C0
E0C0
C1C0
C180
E380
7F00
3C00
ENDCHAR

STARTCHAR Otilde
ENCODING 213
SWIDTH 823 0
DWIDTH 12 0
BBX 10 14 1 0
BITMAP
0640
0FC0
0980
0000
0F00
3F80
71C0
60C0
E0C0
C1C0
C180
E380
7F00
3C00
ENDCHAR

STARTCHAR Odieresis
ENCODING 214
SWIDTH 823 0
DWIDTH 12 0
BBX 10 13 1 0
BITMAP
0D80
0D80
0000
0F00
3F80
71C0
60C0
E0C0
C1C0
C180
E380
7F00
3C00
ENDCHAR

STARTCHAR multiply
ENCODING 215
SWIDTH 667 0
DWIDTH 10 0
BBX 9 8 1 1
BITMAP
C180
6300
3600
1C00
1C00
3600
6300
C180
ENDCHAR

STARTCHAR Oslash
ENCODING 216
SWIDTH 823 0
DWIDTH 12 0
BBX 10 12 1 -1
BITMAP
0040
0FC0
3F80
73C0
66C0
ECC0
CDC0
D980
F380
7F00
FC00
8000
ENDCHAR

STARTCHAR Ugrave
ENCODING 217
SWIDTH 708 0
DWIDTH 11 0
BBX 12 14 1 0
BITMAP
1C00
0E00
0300
0000
7DF0
7DF0
30C0
30C0
6180
6180
C300
C300
FE00
7C00
ENDCHAR

STARTCHAR Uacute
ENCODING 218
SWIDTH 708 0
DWIDTH 11 0
BBX 12 14 1 0
BITMAP
01C0
0380
0600
0000
7DF0
7DF0
30C0
30C0
6180
6180
C300
C300
FE00
7C00
ENDCHAR

STARTCHAR Ucircumflex
ENCODING 219
SWIDTH 708 0
DWIDTH 11 0
BBX 12 14 1 0
BITMAP
0180
03C0
06C0
0000
7DF0
7DF0
30C0
30C0
6180
6180
C300
C300
FE00
7C00
ENDCHAR

STARTCHAR Udieresis
ENCODING 220
SWIDTH 708 0
DWIDTH 11 0
BBX 12 13 1 0
BITMAP
0CC0
0CC0
0000
7DF0
7DF0
30C0
30C0
6180
6180
C300
C300
FE00
7C00
ENDCHAR

STARTCHAR Yacute
ENCODING 221
SWIDTH 625 0
DWIDTH 9 0
BBX 9 14 1 0
BITMAP
0700
0E00
1800
0000
F780
F780
6600
6C00
3800
3000
6000
6000
F000
F000
ENDCHAR

STARTCHAR Thorn
ENCODING 222
SWIDTH 646 0
DWIDTH 10 0
BBX 9 10 0 0
BITMAP
7000
7000
3F00
3F80
3180
7F80
7F00
6000
F000
F000
ENDCHAR

STARTCHAR germandbls
ENCODING 223
SWIDTH 615 0
DWIDTH 9 0
BBX 9 10 0 0
BITMAP
0F00
1F80
3180
3780
3700
6300
6300
6300
EF00
EE00
ENDCHAR

STARTCHAR agrave
ENCODING 224
SWIDTH 573 0
DWIDTH 9 0
BBX 7 11 1 0
BITMAP
70
38
0C
00
7C
7E
06
7C
CC
FE
6E
ENDCHAR

STARTCHAR aacute
ENCODING 225
SWIDTH 573 0
DWIDTH 9 0
BBX 7 11 1 0
BITMAP
0E
1C
30
00
7C
7E
06
7C
CC
FE
6E
ENDCHAR

STARTCHAR acircumflex
ENCODING 226
SWIDTH 573 0
DWIDTH 9 0
BBX 7 11 1 0
BITMAP
0C
1E
36
00
7C
7E
06
7C
CC
FE
6E
ENDCHAR

STARTCHAR atilde
ENCODING 227
SWIDTH 573 0
DWIDTH 9 0
BBX 8 11 1 0
BITMAP
19
3F
26
00
7C
7E
06
7C
CC
FE
6E
ENDCHAR

STARTCHAR adieresis
ENCODING 228
SWIDTH 573 0
DWIDTH 9 0
BBX 7 10 1 0
BITMAP
36
36
00
7C
7E
06
7C
CC
FE
6E
ENDCHAR

STARTCHAR aring
ENCODING 229
SWIDTH 573 0
DWIDTH 9 0
BBX 7 12 1 0
BITMAP
18
24
24
18
00
7C
7E
06
7C
CC
FE
6E
ENDCHAR

STARTCHAR ae
ENCODING 230
SWIDTH 844 0
DWIDTH 13 0
BBX 11 7 1 0
BITMAP
79C0
7FE0
0660
7FE0
CE00
FFC0
7380
ENDCHAR

STARTCHAR ccedilla
ENCODING 231
SWIDTH 531 0
DWIDTH 8 0
BBX 7 10 0 -3
BITMAP
3E
7E
66
C0
CC
FC
78
60
30
E0
ENDCHAR

STARTCHAR egrave
ENCODING 232
SWIDTH 552 0
DWIDTH 8 0
BBX 6 11 1 0
BITMAP
70
38
0C
00
38
7C
6C
FC
C0
F8
70
ENDCHAR

STARTCHAR eacute
ENCODING 233
SWIDTH 552 0
DWIDTH 8 0
BBX 8 11 1 0
BITMAP
07
0E
18
00
38
7C
6C
FC
C0
F8
70
ENDCHAR

STARTCHAR ecircumflex
ENCODING 234
SWIDTH 552 0
DWIDTH 8 0
BBX 7 11 1 0
BITMAP
0C
1E
36
00
38
7C
6C
FC
C0
F8
70
ENDCHAR

STARTCHAR edieresis
ENCODING 235
SWIDTH 552 0
DWIDTH 8 0
BBX 7 10 1 0
BITMAP
36
36
00
38
7C
6C
FC
C0
F8
70
ENDCHAR

STARTCHAR igrave
ENCODING 236
SWIDTH 333 0
DWIDTH 5 0
BBX 5 11 0 0
BITMAP
E0
70
18
00
70
70
30
30
60
F0
F0
ENDCHAR

STARTCHAR iacute
ENCODING 237
SWIDTH 333 0
DWIDTH 5 0
BBX 6 11 0 0
BITMAP
1C
38
60
00
70
70
30
30
60
F0
F0
ENDCHAR

STARTCHAR icircumflex
ENCODING 238
SWIDTH 333 0
DWIDTH 5 0
BBX 6 11 0 0
BITMAP
18
3C
6C
00
70
70
30
30
60
F0
F0
ENDCHAR

STARTCHAR idieresis
ENCODING 239
SWIDTH 333 0
DWIDTH 5 0
BBX 6 10 0 0
BITMAP
6C
6C
00
70
70
30
30
60
F0
F0
ENDCHAR

STARTCHAR eth
ENCODING 240
SWIDTH 635 0
DWIDTH 10 0
BBX 7 11 2 0
BITMAP
36
18
3C
06
3E
7E
66
C6
CC
FC
78
ENDCHAR

STARTCHAR ntilde
ENCODING 241
SWIDTH 604 0
DWIDTH 9 0
BBX 8 11 0 0
BITMAP
19
3F
26
00
76
7F
33
33
66
F7
F7
ENDCHAR

STARTCHAR ograve
ENCODING 242
SWIDTH 573 0
DWIDTH 9 0
BBX 7 11 1 0
BITMAP
38
1C
06
00
3C
7E
66
C6
CC
FC
78
ENDCHAR

STARTCHAR oacute
ENCODING 243
SWIDTH 573 0
DWIDTH 9 0
BBX 8 11 1 0
BITMAP
07
0E
18
00
3C
7E
66
C6
CC
FC
78
ENDCHAR

STARTCHAR ocircumflex
ENCODING 244
SWIDTH 573 0
DWIDTH 9 0
BBX 7 11 1 0
BITMAP
0C
1E
36
00
3C
7E
66
C6
CC
FC
78
ENDCHAR

STARTCHAR otilde
ENCODING 245
SWIDTH 573 0
DWIDTH 9 0
BBX 8 11 1 0
BITMAP
19
3F
26
00
3C
7E
66
C6
CC
FC
78
ENDCHAR

STARTCHAR odieresis
ENCODING 246
SWIDTH 573 0
DWIDTH 9 0
BBX 7 10 1 0
BITMAP
36
36
00
3C
7E
66
C6
CC
FC
78
ENDCHAR

STARTCHAR divide
ENCODING 247
SWIDTH 668 0
DWIDTH 10 0
BBX 8 8 1 1
BITMAP
18
18
00
FF
FF
00
18
18
ENDCHAR

STARTCHAR oslash
ENCODING 248
SWIDTH 573 0
DWIDTH 9 0
BBX 7 9 1 -1
BITMAP
06
3C
7E
6E
D6
EC
FC
78
C0
ENDCHAR

STARTCHAR ugrave
ENCODING 249
SWIDTH 604 0
DWIDTH 9 0
BBX 7 11 1 0
BITMAP
70
38
0C
00
EE
EE
66
66
CC
FE
76
ENDCHAR

STARTCHAR uacute
ENCODING 250
SWIDTH 604 0
DWIDTH 9 0
BBX 7 11 1 0
BITMAP
0E
1C
30
00
EE
EE
66
66
CC
FE
76
ENDCHAR

STARTCHAR ucircumflex
ENCODING 251
SWIDTH 604 0
DWIDTH 9 0
BBX 7 11 1 0
BITMAP
18
3C
6C
00
EE
EE
66
66
CC
FE
76
ENDCHAR

STARTCHAR udieresis
ENCODING 252
SWIDTH 604 0
DWIDTH 9 0
BBX 7 10 1 0
BITMAP
36
36
00
EE
EE
66
66
CC
FE
76
ENDCHAR

STARTCHAR yacute
ENCODING 253
SWIDTH 563 0
DWIDTH 8 0
BBX 10 14 -2 -3
BITMAP
01C0
0380
0600
0000
3DC0
3DC0
1980
1B00
1E00
1C00
1800
3000
E000
E000
ENDCHAR

STARTCHAR thorn
ENCODING 254
SWIDTH 604 0
DWIDTH 9 0
BBX 9 13 -1 -3
BITMAP
3800
3800
1800
1B00
3F80
3180
3180
7380
7F00
6E00
6000
F000
F000
ENDCHAR

STARTCHAR ydieresis
ENCODING 255
SWIDTH 563 0
DWIDTH 8 0
BBX 10 13 -2 -3
BITMAP
0D80
0D80
0000
3DC0
3DC0
1980
1B00
1E00
1C00
1800
3000
E000
E000
ENDCHAR
ENDFONT
